<svg width="184" height="184" viewBox="0 0 184 184" fill="none" xmlns="http://www.w3.org/2000/svg">
<path d="M44.5148 48.4492L75.1416 80.0404C82.0612 87.1779 81.8846 98.5735 74.747 105.493L43.1559 136.12L12.5291 104.529C5.60948 97.3912 5.78612 85.9956 12.9237 79.0759L44.5148 48.4492Z" fill="#202F60"/>
<path d="M139.966 47.0128L170.593 78.604C177.512 85.7416 177.336 97.1372 170.198 104.057L138.607 134.684L107.98 103.092C101.061 95.9548 101.237 84.5592 108.375 77.6396L139.966 47.0128Z" fill="#202F60"/>
<path d="M79.3057 12.5291C86.4432 5.60948 97.8388 5.78612 104.758 12.9237L135.385 44.5148L103.794 75.1416C96.6565 82.0612 85.2609 81.8846 78.3413 74.747L47.7145 43.1559L79.3057 12.5291Z" fill="url(#paint0_linear_5_2)"/>
<path d="M79.3279 107.991C86.4654 101.071 97.861 101.248 104.781 108.386L135.407 139.977L103.816 170.604C96.6787 177.523 85.2831 177.347 78.3634 170.209L47.7367 138.618L79.3279 107.991Z" fill="url(#paint1_linear_5_2)"/>
<defs>
<linearGradient id="paint0_linear_5_2" x1="92.2294" y1="0" x2="89.8814" y2="174.286" gradientUnits="userSpaceOnUse">
<stop stop-color="#2652C3"/>
<stop offset="0.5625" stop-color="#6182DB"/>
<stop offset="1" stop-color="#15356F"/>
</linearGradient>
<linearGradient id="paint1_linear_5_2" x1="91.1858" y1="187.027" x2="92.1855" y2="8.4764" gradientUnits="userSpaceOnUse">
<stop stop-color="#2652C3"/>
<stop offset="0.5625" stop-color="#6182DB"/>
<stop offset="1" stop-color="#15356F"/>
</linearGradient>
</defs>
</svg>
